<svg width="410" height="399" viewBox="0 0 410 399" fill="none" xmlns="http://www.w3.org/2000/svg">
<path d="M170.533 29.7332C163.6 31.0665 152.667 34.2665 146 36.9332C139.467 39.4665 133.2 41.5998 132.4 41.5998C131.467 41.7332 130.667 42.2665 130.667 42.7998C130.667 43.3332 129.467 44.1332 128.133 44.6665C126.8 45.0665 121.733 47.8665 117.067 50.9332C112.533 53.8665 108.4 56.3998 108 56.5332C105.333 57.1998 76 85.9998 76 87.9998C76 88.6665 74.9333 89.9998 73.4667 90.9332C72.1333 91.8665 71.0667 92.9331 71.0667 93.3331C71.2 94.3998 63.4667 105.866 62 106.933C61.3333 107.466 61.0667 108 61.6 108C62.1333 108 60.5333 111.466 58.1333 115.6C39.2 149.333 33.6 199.466 44.1333 241.2C52.4 273.733 72.2667 306.666 95.6 326C110.533 338.4 109.6 337.733 113.333 339.866C143.2 357.066 164.533 363.6 195.333 364.933C220.8 366 254.8 361.6 268.667 355.333C274.933 352.533 284.533 348.666 285.333 348.666C285.733 348.533 288.133 347.466 290.667 346C293.2 344.533 295.6 343.466 296 343.333C296.4 343.333 298.533 342 300.933 340.266C303.2 338.666 305.467 337.333 305.867 337.333C306.267 337.333 307.733 336.4 308.933 335.333C310.267 334.266 313.867 331.466 316.933 329.066C332.267 316.933 335.867 313.866 336 312.933C336 312.4 337.6 310.133 339.6 307.866C357.467 287.866 370.4 260.133 375.467 230.666C378.267 214.533 377.333 182.533 373.467 164C368.667 140 359.6 117.6 347.467 99.5998C344.133 94.6665 341.333 90.3998 341.333 89.9998C341.333 88.6665 320 68.1332 313.733 63.3332C309.867 60.5332 306.667 57.5998 306.667 56.9332C306.667 56.3998 306.133 56.1332 305.467 56.5332C304.8 56.9332 302.933 56.1332 301.2 54.7998C292.267 47.8665 265.333 36.7998 246.8 32.5332C219.6 26.1332 192.933 25.1998 170.533 29.7332ZM213.2 49.5998C214.8 53.9998 214.8 66.6665 213.2 69.5998C212.133 71.4665 210.667 71.9998 207.6 71.7332C204 71.3332 203.333 70.6665 202.4 66.6665C201.333 62.1332 202 50.1332 203.467 47.8665C203.867 47.1998 206 46.6665 208.133 46.6665C210.933 46.6665 212.4 47.4665 213.2 49.5998ZM194.533 51.0665C195.333 52.1332 196.267 57.0665 196.8 62.2665C197.6 71.0665 197.467 71.7332 194.8 72.6665C189.867 74.1332 187.333 72.2665 185.6 65.9998C183.867 59.3332 183.467 51.5998 184.933 50.2665C186.4 48.6665 192.933 49.1998 194.533 51.0665ZM231.733 53.8665C232.533 60.1332 230.667 68.9332 228.133 72.2665C226 74.9332 225.2 75.0665 222.133 73.5998C219.333 72.3998 218.667 71.1998 218.667 67.0665C218.667 60.7998 221.067 51.7332 223.2 50.2665C224 49.7332 226.133 49.4665 228 49.5998C230.533 49.8665 231.467 50.7998 231.733 53.8665ZM176 59.1998C182.133 73.5998 181.867 79.9998 175.333 79.9998C172.267 79.9998 168.267 75.8665 167.467 71.7332C167.2 70.7998 166.4 68.2665 165.6 66.2665C163.867 62.1332 163.467 55.5998 164.933 54.2665C165.333 53.7332 167.467 53.3332 169.6 53.3332C172.8 53.3332 173.867 54.2665 176 59.1998ZM251.2 60.1332C251.2 63.7332 249.867 68.7998 247.867 72.7998C245.067 78.3998 244.133 79.3332 240.667 79.3332C236.8 79.3332 236.667 79.1998 236.8 72.6665C236.8 68.6665 238.133 63.4665 240 59.5998C242.8 53.7332 243.333 53.1998 247.2 53.5998C251.2 53.9998 251.333 54.2665 251.2 60.1332ZM154.267 62.9332C163.6 73.1998 166.8 86.7998 160.267 87.7332C158.533 87.9998 156.267 87.4665 155.067 86.3998C151.333 83.4665 142.667 69.0665 142.667 65.9998C142.667 59.7332 149.6 57.8665 154.267 62.9332ZM271.733 61.5998C274.4 64.2665 273.6 67.8665 268.667 75.8665C262.667 85.9998 259.6 88.5332 255.333 87.4665C250.667 86.2665 250.933 80.6665 255.867 72.2665C262.933 60.2665 267.467 57.3332 271.733 61.5998ZM142.533 80.6665C151.6 90.1332 153.467 92.6665 153.067 95.7331C152.667 98.7998 152 99.4665 148.133 99.7331C144 100.133 142.533 99.1998 132.4 89.0665C126.4 83.0665 121.333 77.0665 121.333 75.8665C121.333 71.0665 122.933 69.3332 127.333 69.3332C130.933 69.3332 133.2 71.0665 142.533 80.6665ZM294.4 73.9998C294.667 77.4665 293.2 79.4665 283.6 89.0665C273.467 99.1998 272 100.133 267.867 99.7331C264 99.3331 263.333 98.7998 262.933 95.5998C262.533 92.5331 264.267 89.9998 273.6 80.5332C283.733 70.1332 284.933 69.1998 289.333 69.5998C293.467 69.9998 294 70.5332 294.4 73.9998ZM212.533 84.3998C213.6 86.1332 214.4 91.1998 214.4 96.3998C214.533 101.333 214.933 106 215.333 106.666C217.067 109.466 219.867 107.733 222.267 102.4C228.133 88.6665 230 85.9998 233.467 85.5998C235.467 85.3332 237.6 86.1332 238.667 87.3332C240.267 89.3332 240 91.1998 236.8 100.666C234.667 106.8 233.467 112.4 233.867 113.2C235.733 116.266 240.133 114.533 246.533 108.133C255.867 98.9331 262.667 97.7331 262.667 105.466C262.667 108.266 260.667 111.466 255.333 117.333C248.4 124.933 247.2 128.266 251.2 129.733C252 130.133 256.267 128.933 260.667 127.2C272.133 122.533 278.667 123.333 278.667 129.333C278.667 131.733 275.067 135.6 272.133 136.266C266.533 137.6 256.667 143.866 256.667 146.133C256.667 148.4 257.867 148.666 266 149.066C271.2 149.2 276.667 149.6 278.267 150C281.867 150.8 283.333 154.933 281.333 158.666C280 161.066 278.667 161.333 268 161.333C256.4 161.333 256 161.466 256 164.4C256 166.8 257.6 168.133 265.067 171.2C275.867 175.866 278.667 178.133 278.667 182C278.667 187.066 272.533 188.133 264.267 184.533C261.6 183.2 258.8 182.133 258 181.866C251.2 179.866 250.8 179.866 249.467 182.4C247.867 185.333 249.867 188.266 258.933 197.333C262.933 201.333 263.467 204 261.333 208.133C259.067 212.266 255.6 211.066 247.867 203.866C239.467 195.866 236 194.133 233.867 197.066C232.8 198.533 233.467 201.6 236.533 209.6C240.8 221.066 240.533 224.266 234.8 225.066C230.133 225.733 226.4 220.133 221.867 205.6C221.6 204.666 220.8 204.266 220 204.666C219.333 205.066 218.667 204.8 218.667 204.133C218.667 203.333 217.733 202.666 216.667 202.666C215.067 202.666 214.667 204.533 214.667 211.2C214.667 226.8 212.4 230.933 205.333 228.666C202.933 227.866 202.667 226.666 202.667 217.466C202.667 201.2 197.733 197.6 192.8 210.133C188.4 221.6 185.6 225.333 181.333 225.333C175.6 225.333 175.067 221.466 179.333 209.866C185.2 193.866 181.333 191.466 168.933 203.333C161.333 210.666 157.867 212 154.933 209.066C151.733 205.866 153.333 201.466 160.667 193.6C172 181.333 170 177.733 154.933 183.466C150 185.333 144.533 186.666 142.8 186.4C138.533 185.866 136.133 182.133 138.133 178.933C139.733 176.4 153.333 169.2 154.8 170.133C156.4 171.066 160.133 166.533 159.733 164.133C159.333 162.4 156.933 161.866 147.333 161.333L135.333 160.666L134.933 156.133C134.4 150.266 136 149.333 146.933 149.333C156.933 149.333 160 148.533 160 146C160 144.266 152 137.733 150.667 138.266C150.267 138.533 148.133 138 145.867 137.333C139.867 135.333 137.067 131.733 138.133 127.466C139.2 122.8 144.4 122.8 156.267 127.6C161.333 129.466 165.733 130.666 166.267 130.266C168.933 127.466 167.067 123.066 160.4 116.4C153.333 109.2 151.733 104.8 154.933 101.6C157.867 98.6665 161.2 99.9998 168.667 107.333C175.867 114.266 178.933 115.866 182 113.6C183.867 112.4 183.6 111.066 180.933 104.933C176.533 94.7998 175.467 89.5998 177.333 87.3332C179.733 84.5332 184.8 84.7998 187.067 87.9998C188.133 89.4665 190.4 94.2665 192.133 98.6665C197.467 112.266 201.733 110.8 202.4 94.9331C202.933 81.9998 202.933 81.9998 207.2 81.5998C209.467 81.4665 211.2 82.2665 212.533 84.3998ZM123.733 91.3332C130.533 95.4665 136 99.4665 136 100.133C136 100.8 136.8 101.2 137.733 100.933C138.8 100.8 139.333 102.4 139.333 106C139.333 115.2 134.4 113.866 109.067 97.7331C101.867 93.1998 100 91.3332 100 88.7998C100 84.7998 103.467 82.3998 108 83.1998C109.867 83.5998 116.933 87.1998 123.733 91.3332ZM315.733 88.2665C316.133 91.4665 315.067 92.6665 306.8 97.8665C289.067 109.2 282.8 112.4 279.333 111.466C276.8 110.8 276 109.733 276 107.066C276 103.333 279.333 98.6665 282.133 98.6665C283.067 98.6665 284 98.1331 284.267 97.5998C284.533 97.0665 289.2 93.7332 294.667 90.2665C302.933 85.0665 305.6 83.9998 310 84.2665C314.667 84.6665 315.333 85.0665 315.733 88.2665ZM102 106.666C104.267 107.6 107.067 108.666 108.4 108.933C109.733 109.066 112.933 110.266 115.733 111.6C121.467 114.133 122 114.266 124.667 114.533C131.2 115.066 134.667 126 128.8 127.466C125.6 128.266 102.533 121.2 99.0667 118.4C98.1333 117.6 97.3333 117.466 97.3333 117.866C97.3333 118.4 96 118 94.4 117.066C92.6667 116.266 90.5333 115.333 89.6 115.2C85.0667 114.4 82.1333 107.733 85.0667 104.8C86.4 103.333 97.0667 104.666 102 106.666ZM331.733 108.133C332.267 112.4 329.867 114.4 320.933 117.733C288.667 129.466 284.933 130 284.267 123.2C284 120.933 284.667 118.4 285.6 117.6C288.267 115.466 316.267 105.333 317.6 106.133C318.133 106.533 318.667 106.133 318.667 105.333C318.667 104.4 320.933 104 325.067 104.266C330.667 104.666 331.333 105.066 331.733 108.133ZM102 129.2C113.467 131.333 123.733 133.866 124.8 134.8C127.6 137.066 127.067 142.4 124 144C121.867 145.2 116.667 144.666 101.733 142C79.3333 137.866 73.3333 135.733 73.3333 132.133C73.3333 129.066 76.6667 125.333 79.3333 125.333C80.2667 125.333 90.5333 127.066 102 129.2ZM340.267 127.6C345.067 132 342.533 135.866 333.333 138C325.867 139.733 296.533 145.333 294.933 145.333C290.4 145.333 287.333 137.466 290.933 135.066C292.933 133.733 330 125.6 334.533 125.466C336.4 125.333 338.933 126.266 340.267 127.6ZM123.733 150.933C124.667 151.866 125.333 153.733 125.333 155.333C125.333 160.933 123.467 161.333 95.8667 161.333C81.3333 161.333 68.6667 160.933 67.4667 160.533C64.9333 159.6 64.5333 151.2 67.0667 150.266C67.8667 149.866 80.6667 149.466 95.4667 149.466C114.533 149.333 122.533 149.733 123.733 150.933ZM347.733 150.133C351.6 151.2 351.867 157.866 348.133 160C346.533 160.8 335.2 161.333 320.4 161.333C294 161.2 290.133 160.4 291.067 155.2C291.867 149.466 292.4 149.333 319.067 149.333C333.2 149.333 346 149.733 347.733 150.133ZM124.533 166.133C127.067 167.066 127.333 173.733 125.067 175.733C123.467 176.933 120.533 177.733 112 179.2C106.933 180.133 81.4667 185.2 73.8667 186.8C64.2667 188.933 60 187.733 60 182.8C60 180.666 60.8 178.4 61.7333 177.6C63.3333 176.133 70.5333 174.266 80 172.8C82.5333 172.4 91.8667 170.533 100.667 168.8C118 165.333 121.333 164.933 124.533 166.133ZM311.333 168.266C314.267 169.066 317.867 169.866 319.333 170C329.733 171.333 348.133 175.333 351.733 176.933C354.8 178.4 356 179.866 356 182.133C356 186.8 352.133 188.266 343.733 186.666C339.867 185.866 334.933 184.933 332.667 184.533C315.733 181.6 299.733 178.266 295.067 176.533C290.533 174.933 289.333 173.733 289.333 171.333C289.333 165.333 296.4 164.4 311.333 168.266ZM132 187.2C132 189.6 131.2 192.266 130.267 193.066C129.333 193.866 120.8 197.333 111.333 200.666C101.733 204.133 88.4 208.933 81.4667 211.466C74.4 214.133 67.3333 216 64.8 215.733C61.2 215.333 60.6667 214.8 60.2667 211.066C59.8667 207.6 60.5333 206.533 63.6 204.933C66.8 203.2 103.6 189.6 107.333 188.666C109.6 188.133 113.733 186.533 118 184.666C120.267 183.6 124.267 182.8 127.067 182.8C131.867 182.666 132 182.8 132 187.2ZM304.667 187.066C330.267 196.266 343.867 201.333 349.733 203.866C355.733 206.4 356.133 206.933 355.733 210.933C355.067 217.866 350.667 217.333 323.333 207.333C286.667 193.866 284.667 192.933 284.267 189.466C283.067 181.466 287.6 180.933 304.667 187.066ZM139.733 204C140 208.266 139.6 209.066 134.4 212.266C131.2 214.266 123.467 219.066 117.067 223.2C110.533 227.2 105.333 230.133 105.333 229.6C105.333 229.066 104.8 229.333 104.267 230.133C103.2 232 74.8 249.333 73.0667 249.333C70 249.333 66.6667 246.266 66.6667 243.466C66.6667 241.866 68.1333 239.2 69.8667 237.733C74.6667 233.6 88 225.2 88 226.4C88 226.933 88.8 226.4 89.7333 225.333C91.7333 222.8 118.667 206.4 118.667 207.733C118.667 208.266 119.2 207.866 119.867 206.8C121.867 203.733 131.2 199.066 135.333 199.2C138.933 199.333 139.333 199.866 139.733 204ZM288.267 201.466C293.333 204 305.067 211.466 308.667 214.4C309.467 214.933 311.067 215.866 312.267 216.266C313.467 216.8 317.067 218.8 320.267 220.933C323.467 222.933 327.6 225.466 329.467 226.666C348.4 237.866 350.933 240.4 348.8 246C347.733 248.933 339.733 248.533 335.6 245.333C333.733 243.866 331.6 242.666 330.8 242.666C330 242.666 329.333 242 329.333 241.333C329.333 240.533 328.667 240 327.733 240C326.933 240 323.2 238.133 319.467 235.733C315.733 233.466 309.733 229.6 306 227.333C302.4 225.066 294.133 219.866 287.733 215.866C277.067 209.333 276 208.266 276 204.533C276 202.266 276.4 200 276.933 199.6C278.533 197.866 282.667 198.666 288.267 201.466ZM153.067 214.933C153.467 218.133 149.333 222.8 121.733 250.666C96.5333 276 89.2 282.666 86.4 282.666C84.5333 282.666 82.2667 281.866 81.4667 280.933C78 276.666 82.4 271.066 110.533 243.333C126 228.133 138.267 215.066 137.733 214.266C137.333 213.466 137.6 213.333 138.4 213.866C139.2 214.266 140.667 213.866 141.6 212.666C142.667 211.466 145.2 210.8 148 211.066C152 211.333 152.667 211.866 153.067 214.933ZM287.333 225.6C295.6 233.866 306 244.133 310.4 248.533C314.933 252.8 318.667 256.8 318.667 257.466C318.667 258.133 319.333 258.666 320 258.666C320.8 258.666 324.667 262 328.667 266.266C334 271.733 336 274.8 336 277.466C336 281.733 332.267 284.533 328.4 283.066C324.667 281.733 262.667 219.333 262.667 217.066C262.667 212.533 264.267 210.666 268.267 210.666C271.733 210.666 274.8 213.066 287.333 225.6ZM163.733 227.6C164.133 232.133 160.933 240 158.533 240C157.733 240 157.6 240.533 158 241.333C158.4 242 158.133 242.666 157.467 242.666C156.667 242.666 156 243.333 156 244.133C156 246.4 130.933 286.933 128.933 287.733C128.4 288 128.267 288.666 128.533 289.066C128.8 289.6 125.6 295.066 121.467 301.333C114.8 311.333 113.6 312.666 110 312.666C106.4 312.666 106 312.266 105.6 307.733C105.333 303.866 106.267 301.066 110.267 295.066C112.933 290.8 116 285.866 116.933 284.133C122 274.933 150.133 230 152.933 226.533C157.733 220.933 163.2 221.466 163.733 227.6ZM260.8 223.866C260.4 224.533 260.8 225.333 261.867 225.733C262.933 226.133 266 230.533 268.8 235.6C271.6 240.533 274.267 244.933 274.8 245.333C275.333 245.733 279.733 252.533 284.533 260.666C289.333 268.666 293.733 275.866 294.4 276.666C295.867 278.533 303.733 291.6 307.6 298.266C311.067 304.533 311.6 311.333 308.8 312.4C306.533 313.333 301.333 312.133 301.333 310.666C301.333 310.133 299.867 308 298 305.866C296.133 303.733 294.667 301.2 294.667 300.266C294.667 299.466 294 298.666 293.2 298.666C292.533 298.666 292.133 298.133 292.533 297.466C293.067 296.8 292.8 296 292.133 295.733C291.067 295.333 275.467 270.666 270.8 262C269.6 259.733 268.267 257.733 267.733 257.6C267.067 257.333 266.667 256.4 266.667 255.333C266.667 254.4 265.733 252.933 264.667 252C263.6 251.066 262.933 249.866 263.333 249.333C263.733 248.666 263.467 248 262.8 247.733C260.667 247.066 252 231.733 252 228.666C252 227.066 252.667 225.2 253.6 224.266C255.467 222.4 261.867 222 260.8 223.866ZM179.733 235.066C180 237.2 179.2 242.266 177.867 246.4C175.867 253.066 162.8 289.066 160.4 294.666C160 295.733 159.467 297.6 159.2 298.8C158.933 300 157.467 303.866 155.867 307.466C154.4 311.066 152.267 316.8 151.2 320.133C150.133 323.466 148.133 327.333 146.533 328.8C144.933 330.133 143.6 331.333 143.467 331.2C143.467 331.2 142 330.4 140.4 329.466C136 327.2 136.533 323.6 143.867 303.733C147.467 294 154.4 274.933 159.333 261.333C169.6 232.533 170.8 230.4 175.733 230.933C178.533 231.2 179.467 232.133 179.733 235.066ZM247.067 236.266C248.933 239.466 251.333 245.333 252.667 249.333C253.867 253.333 255.2 257.6 255.6 258.666C256.133 259.733 256.533 260.933 256.667 261.333C257.467 263.466 259.067 267.733 260.133 270C264.133 279.2 278.667 321.6 278.667 324.266C278.667 330.4 272.933 332.8 268.8 328.266C267.6 326.8 265.333 321.866 263.867 317.2C262.4 312.533 260.533 307.466 259.867 306C259.2 304.533 255.333 294.266 251.333 283.066C247.333 272 242.8 259.6 241.2 255.733C239.733 251.866 238.4 248.4 238.4 248C238.4 247.6 237.867 246 237.2 244.266C235.467 239.733 235.733 232.266 237.733 231.6C241.867 229.866 244 230.933 247.067 236.266ZM195.733 237.6C198.8 240.666 198 245.333 183.467 318.666L179.333 339.333L174.4 339.733C170.133 340.133 169.333 339.733 168.667 336.933C168 334.4 176.933 284 179.2 277.333C179.6 276.266 180.267 272.933 180.667 270C183.2 252.266 185.867 241.2 188.267 238.8C191.067 235.6 193.467 235.333 195.733 237.6ZM228.667 238.666C229.067 239.333 229.733 241.066 230 242.266C232 251.333 237.2 277.333 237.733 280.666C238.933 287.6 244 313.6 246.133 323.333C247.2 328.533 247.733 334.4 247.333 336.4C246.533 339.466 245.6 340 241.867 340C239.333 340 237.333 339.6 237.2 338.933C237.2 338.4 236.933 337.066 236.533 336C235.333 331.6 226.533 288.133 225.467 281.333C224.8 277.333 222.933 267.333 221.333 259.2C217.733 241.6 218.267 237.333 224 237.333C226.133 237.333 228.267 237.866 228.667 238.666ZM213.467 243.6C214.133 265.6 213.6 342.533 212.8 343.733C211.467 346 204.4 345.733 203.467 343.333C203.067 342.266 202.667 319.2 202.667 292C202.533 255.066 202.8 242.133 204 240.666C204.933 239.6 207.333 238.666 209.467 238.666C213.067 238.666 213.333 239.066 213.467 243.6Z" fill="#FD7291"/>
<path d="M193.2 122.4C186.933 125.333 182.933 128.8 178 135.333C174.4 140.133 174 141.866 173.467 152.4C172.8 171.6 179.067 182.266 194.533 188.133C201.867 190.8 210.933 191.066 221.2 188.8C226.667 187.6 233.2 182.266 237.733 175.333C241.467 169.466 242 167.466 242.533 157.6C243.2 140 237.6 129.6 224.133 123.2C217.467 120 199.333 119.6 193.2 122.4Z" fill="#FD7291"/>
</svg>
